<svg width="573" height="551" viewBox="0 0 573 551" fill="none" xmlns="http://www.w3.org/2000/svg">
<path d="M572 546V101C483.139 124.792 521.623 166.762 469.502 218.198C409.445 286.358 281.501 424.382 186.201 363.594C28.7142 263.139 12.4096 435.075 1 546H572Z" fill="url(#paint0_linear)" stroke="url(#paint1_linear)"/>
<g filter="url(#filter0_d)">
<rect x="140" y="50" width="345" height="443" rx="10" fill="white"/>
<rect x="184" y="111" width="257" height="180" rx="10" fill="url(#paint2_linear)"/>
<path opacity="0.3" fill-rule="evenodd" clip-rule="evenodd" d="M286.221 111H431C436.523 111 441 115.477 441 121V229.841C423.658 244.301 401.345 253 377 253C321.772 253 277 208.228 277 153C277 137.999 280.303 123.77 286.221 111Z" fill="#E3F2DD"/>
<circle cx="312" cy="201" r="45" fill="#E3F2DD" fill-opacity="0.5"/>
<path d="M330.677 205.809C333.963 203.876 333.963 199.124 330.677 197.191L306.536 182.985C303.203 181.023 299 183.427 299 187.294V215.706C299 219.573 303.203 221.977 306.536 220.015L330.677 205.809Z" fill="white"/>
<circle cx="201.5" cy="359.5" r="17.5" fill="#E3F2DD"/>
<rect x="239" y="342" width="158" height="35" rx="17.5" fill="#E3F2DD"/>
<circle cx="201.5" cy="437.5" r="17.5" fill="#E3F2DD"/>
<rect x="239" y="420" width="158" height="35" rx="17.5" fill="#E3F2DD"/>
<path d="M195.192 328.12C194.576 328.12 194.052 328.04 193.62 327.88C193.188 327.712 192.864 327.536 192.648 327.352V325.696C192.928 325.856 193.3 326.024 193.764 326.2C194.236 326.376 194.756 326.464 195.324 326.464C195.692 326.464 195.964 326.392 196.14 326.248C196.324 326.104 196.416 325.908 196.416 325.66C196.416 325.436 196.344 325.252 196.2 325.108C196.056 324.964 195.84 324.832 195.552 324.712C195.264 324.592 194.896 324.452 194.448 324.292C193.808 324.06 193.312 323.76 192.96 323.392C192.608 323.024 192.432 322.528 192.432 321.904C192.432 321.464 192.528 321.052 192.72 320.668C192.92 320.284 193.228 319.976 193.644 319.744C194.068 319.504 194.608 319.384 195.264 319.384C195.52 319.384 195.772 319.396 196.02 319.42C196.276 319.436 196.492 319.46 196.668 319.492L198.024 320.488L197.424 321.712L195.228 320.932C194.94 320.932 194.7 321.004 194.508 321.148C194.324 321.284 194.232 321.48 194.232 321.736C194.232 322.056 194.364 322.3 194.628 322.468C194.9 322.636 195.28 322.8 195.768 322.96C196.696 323.264 197.348 323.632 197.724 324.064C198.1 324.488 198.288 324.988 198.288 325.564C198.288 326.028 198.192 326.456 198 326.848C197.808 327.232 197.484 327.54 197.028 327.772C196.58 328.004 195.968 328.12 195.192 328.12ZM201.104 328.12C200.56 328.12 200.164 328 199.916 327.76C199.668 327.52 199.544 327.156 199.544 326.668V323.452H198.788V322.672L199.424 322.084L200.276 320.596H201.212V322.336H202.772V323.536H201.212V326.824L202.772 326.812V327.76C202.772 327.76 202.708 327.792 202.58 327.856C202.452 327.912 202.264 327.968 202.016 328.024C201.776 328.088 201.472 328.12 201.104 328.12ZM206.076 328.12C205.556 328.12 205.092 328.028 204.684 327.844C204.276 327.66 203.956 327.352 203.724 326.92C203.492 326.488 203.376 325.904 203.376 325.168C203.376 324.456 203.5 323.884 203.748 323.452C203.996 323.02 204.324 322.708 204.732 322.516C205.14 322.316 205.588 322.216 206.076 322.216C206.612 322.216 207.032 322.276 207.336 322.396C207.648 322.516 207.884 322.632 208.044 322.744L208.644 324.652L208.404 325.396H205.044C205.092 325.82 205.244 326.16 205.5 326.416C205.756 326.672 206.148 326.8 206.676 326.8C207.108 326.8 207.456 326.748 207.72 326.644C207.992 326.54 208.18 326.46 208.284 326.404V327.652C208.044 327.78 207.736 327.892 207.36 327.988C206.992 328.076 206.564 328.12 206.076 328.12ZM205.032 324.628L206.832 324.388L206.652 323.5C206.596 323.468 206.516 323.444 206.412 323.428C206.316 323.412 206.228 323.404 206.148 323.404C205.788 323.404 205.512 323.532 205.32 323.788C205.128 324.036 205.032 324.316 205.032 324.628ZM209.63 330.916V324.376L209.39 323.056L209.762 322.324H211.07V322.84L211.19 322.9C211.19 322.9 211.262 322.84 211.406 322.72C211.55 322.6 211.746 322.484 211.994 322.372C212.25 322.252 212.546 322.192 212.882 322.192C213.594 322.192 214.15 322.42 214.55 322.876C214.958 323.332 215.162 324.052 215.162 325.036C215.162 325.772 215.058 326.368 214.85 326.824C214.65 327.272 214.378 327.596 214.034 327.796C213.69 327.996 213.306 328.096 212.882 328.096C212.466 328.096 212.122 328.06 211.85 327.988C211.578 327.908 211.398 327.852 211.31 327.82V330.916H209.63ZM212.102 326.824C212.414 326.824 212.662 326.748 212.846 326.596C213.03 326.436 213.162 326.228 213.242 325.972C213.322 325.716 213.362 325.44 213.362 325.144C213.362 324.856 213.33 324.588 213.266 324.34C213.202 324.092 213.086 323.896 212.918 323.752C212.758 323.6 212.526 323.524 212.222 323.524L211.31 323.776V326.668C211.31 326.668 211.39 326.696 211.55 326.752C211.718 326.8 211.902 326.824 212.102 326.824ZM220.082 328V327.28L220.634 325.912H219.002V324.592H221.162L221.498 323.752L221.714 322.912H219.722V321.592H222.062L222.602 319.504H224.354V320.224L223.85 321.592H225.542L226.19 319.504H227.93V320.224L227.366 321.592H228.866V322.912H226.826L226.478 323.752L226.262 324.592H228.146V325.912H225.926L225.398 328H223.67V327.28L224.126 325.912H222.398L221.822 328H220.082ZM222.818 324.352L222.758 324.592H224.57L225.05 323.152L225.122 322.912H223.358L222.818 324.352ZM231.265 328V321.532H229.825V320.224L232.993 319.504L233.113 320.224L232.993 321.424V328H231.265Z" fill="#8BC175"/>
<path d="M195.192 409.12C194.576 409.12 194.052 409.04 193.62 408.88C193.188 408.712 192.864 408.536 192.648 408.352V406.696C192.928 406.856 193.3 407.024 193.764 407.2C194.236 407.376 194.756 407.464 195.324 407.464C195.692 407.464 195.964 407.392 196.14 407.248C196.324 407.104 196.416 406.908 196.416 406.66C196.416 406.436 196.344 406.252 196.2 406.108C196.056 405.964 195.84 405.832 195.552 405.712C195.264 405.592 194.896 405.452 194.448 405.292C193.808 405.06 193.312 404.76 192.96 404.392C192.608 404.024 192.432 403.528 192.432 402.904C192.432 402.464 192.528 402.052 192.72 401.668C192.92 401.284 193.228 400.976 193.644 400.744C194.068 400.504 194.608 400.384 195.264 400.384C195.52 400.384 195.772 400.396 196.02 400.42C196.276 400.436 196.492 400.46 196.668 400.492L198.024 401.488L197.424 402.712L195.228 401.932C194.94 401.932 194.7 402.004 194.508 402.148C194.324 402.284 194.232 402.48 194.232 402.736C194.232 403.056 194.364 403.3 194.628 403.468C194.9 403.636 195.28 403.8 195.768 403.96C196.696 404.264 197.348 404.632 197.724 405.064C198.1 405.488 198.288 405.988 198.288 406.564C198.288 407.028 198.192 407.456 198 407.848C197.808 408.232 197.484 408.54 197.028 408.772C196.58 409.004 195.968 409.12 195.192 409.12ZM201.104 409.12C200.56 409.12 200.164 409 199.916 408.76C199.668 408.52 199.544 408.156 199.544 407.668V404.452H198.788V403.672L199.424 403.084L200.276 401.596H201.212V403.336H202.772V404.536H201.212V407.824L202.772 407.812V408.76C202.772 408.76 202.708 408.792 202.58 408.856C202.452 408.912 202.264 408.968 202.016 409.024C201.776 409.088 201.472 409.12 201.104 409.12ZM206.076 409.12C205.556 409.12 205.092 409.028 204.684 408.844C204.276 408.66 203.956 408.352 203.724 407.92C203.492 407.488 203.376 406.904 203.376 406.168C203.376 405.456 203.5 404.884 203.748 404.452C203.996 404.02 204.324 403.708 204.732 403.516C205.14 403.316 205.588 403.216 206.076 403.216C206.612 403.216 207.032 403.276 207.336 403.396C207.648 403.516 207.884 403.632 208.044 403.744L208.644 405.652L208.404 406.396H205.044C205.092 406.82 205.244 407.16 205.5 407.416C205.756 407.672 206.148 407.8 206.676 407.8C207.108 407.8 207.456 407.748 207.72 407.644C207.992 407.54 208.18 407.46 208.284 407.404V408.652C208.044 408.78 207.736 408.892 207.36 408.988C206.992 409.076 206.564 409.12 206.076 409.12ZM205.032 405.628L206.832 405.388L206.652 404.5C206.596 404.468 206.516 404.444 206.412 404.428C206.316 404.412 206.228 404.404 206.148 404.404C205.788 404.404 205.512 404.532 205.32 404.788C205.128 405.036 205.032 405.316 205.032 405.628ZM209.63 411.916V405.376L209.39 404.056L209.762 403.324H211.07V403.84L211.19 403.9C211.19 403.9 211.262 403.84 211.406 403.72C211.55 403.6 211.746 403.484 211.994 403.372C212.25 403.252 212.546 403.192 212.882 403.192C213.594 403.192 214.15 403.42 214.55 403.876C214.958 404.332 215.162 405.052 215.162 406.036C215.162 406.772 215.058 407.368 214.85 407.824C214.65 408.272 214.378 408.596 214.034 408.796C213.69 408.996 213.306 409.096 212.882 409.096C212.466 409.096 212.122 409.06 211.85 408.988C211.578 408.908 211.398 408.852 211.31 408.82V411.916H209.63ZM212.102 407.824C212.414 407.824 212.662 407.748 212.846 407.596C213.03 407.436 213.162 407.228 213.242 406.972C213.322 406.716 213.362 406.44 213.362 406.144C213.362 405.856 213.33 405.588 213.266 405.34C213.202 405.092 213.086 404.896 212.918 404.752C212.758 404.6 212.526 404.524 212.222 404.524L211.31 404.776V407.668C211.31 407.668 211.39 407.696 211.55 407.752C211.718 407.8 211.902 407.824 212.102 407.824ZM220.082 409V408.28L220.634 406.912H219.002V405.592H221.162L221.498 404.752L221.714 403.912H219.722V402.592H222.062L222.602 400.504H224.354V401.224L223.85 402.592H225.542L226.19 400.504H227.93V401.224L227.366 402.592H228.866V403.912H226.826L226.478 404.752L226.262 405.592H228.146V406.912H225.926L225.398 409H223.67V408.28L224.126 406.912H222.398L221.822 409H220.082ZM222.818 405.352L222.758 405.592H224.57L225.05 404.152L225.122 403.912H223.358L222.818 405.352ZM229.885 409V407.692C229.885 407.692 229.977 407.632 230.161 407.512C230.345 407.384 230.581 407.22 230.869 407.02C231.157 406.82 231.453 406.6 231.757 406.36C232.069 406.12 232.345 405.884 232.585 405.652C233.105 405.164 233.493 404.728 233.749 404.344C234.005 403.96 234.133 403.536 234.133 403.072C234.133 402.76 234.033 402.516 233.833 402.34C233.641 402.156 233.321 402.064 232.873 402.064C232.537 402.064 232.197 402.1 231.853 402.172C231.509 402.244 231.189 402.336 230.893 402.448C230.597 402.552 230.345 402.66 230.137 402.772V401.092C230.217 401.052 230.377 400.98 230.617 400.876C230.865 400.764 231.189 400.66 231.589 400.564C231.989 400.468 232.461 400.42 233.005 400.42C234.021 400.42 234.773 400.64 235.261 401.08C235.757 401.512 236.005 402.128 236.005 402.928C236.005 403.424 235.901 403.884 235.693 404.308C235.493 404.732 235.225 405.12 234.889 405.472C234.561 405.824 234.205 406.144 233.821 406.432C233.445 406.72 233.081 406.976 232.729 407.2L232.789 407.44L236.005 407.2V409H229.885Z" fill="#8BC175"/>
</g>
<path d="M154 75.8902V31C154 29.3431 155.343 28 157 28H192C193.657 28 195 29.3431 195 31V75.8902C195 78.6754 191.535 79.9573 189.722 77.8426L176.778 62.7407C175.58 61.3439 173.42 61.3439 172.222 62.7407L159.278 77.8426C157.465 79.9573 154 78.6754 154 75.8902Z" fill="#8BC175"/>
<defs>
<filter id="filter0_d" x="86" y="0" width="453" height="551" filterUnits="userSpaceOnUse" color-interpolation-filters="sRGB">
<feFlood flood-opacity="0" result="BackgroundImageFix"/>
<feColorMatrix in="SourceAlpha" type="matrix" values="0 0 0 0 0 0 0 0 0 0 0 0 0 0 0 0 0 0 127 0" result="hardAlpha"/>
<feOffset dy="4"/>
<feGaussianBlur stdDeviation="27"/>
<feComposite in2="hardAlpha" operator="out"/>
<feColorMatrix type="matrix" values="0 0 0 0 0 0 0 0 0 0 0 0 0 0 0 0 0 0 0.12 0"/>
<feBlend mode="normal" in2="BackgroundImageFix" result="effect1_dropShadow"/>
<feBlend mode="normal" in="SourceGraphic" in2="effect1_dropShadow" result="shape"/>
</filter>
<linearGradient id="paint0_linear" x1="286.06" y1="0.103957" x2="300.744" y2="545.996" gradientUnits="userSpaceOnUse">
<stop stop-color="#E3F2DD"/>
<stop offset="1" stop-color="white"/>
</linearGradient>
<linearGradient id="paint1_linear" x1="269.784" y1="66.1931" x2="286.552" y2="545.998" gradientUnits="userSpaceOnUse">
<stop stop-color="#8BC175"/>
<stop offset="1" stop-color="white"/>
</linearGradient>
<linearGradient id="paint2_linear" x1="312" y1="57" x2="312.5" y2="291" gradientUnits="userSpaceOnUse">
<stop stop-color="#E3F2DD"/>
<stop offset="1" stop-color="#8BC175"/>
</linearGradient>
</defs>
</svg>
