<svg width="573" height="551" viewBox="0 0 573 551" fill="none" xmlns="http://www.w3.org/2000/svg">
<path d="M1 546V101C89.8613 124.792 51.3772 166.762 103.498 218.198C163.555 286.358 291.499 424.382 386.799 363.594C544.286 263.139 560.59 435.075 572 546H1Z" fill="url(#paint0_linear)" stroke="url(#paint1_linear)"/>
<g filter="url(#filter0_d)">
<rect x="90" y="50" width="345" height="443" rx="10" fill="white"/>
<ellipse cx="156.5" cy="356" rx="16.5" ry="16" fill="#E3F2DD"/>
<rect x="208" y="340" width="169" height="32" rx="16" fill="#E3F2DD"/>
<circle cx="156.5" cy="428.5" r="16.5" fill="#E3F2DD"/>
<rect x="208" y="412" width="169" height="33" rx="16.5" fill="#E3F2DD"/>
<rect opacity="0.5" x="165" y="143" width="195" height="116" rx="10" fill="#E3F2DD"/>
<rect x="140" y="106" width="257" height="180" rx="10" fill="url(#paint2_linear)"/>
<path opacity="0.3" fill-rule="evenodd" clip-rule="evenodd" d="M242.221 106H387C392.523 106 397 110.477 397 116V224.841C379.658 239.301 357.345 248 333 248C277.772 248 233 203.228 233 148C233 132.999 236.303 118.77 242.221 106Z" fill="#E3F2DD"/>
<path fill-rule="evenodd" clip-rule="evenodd" d="M248.75 190.953V193.847V207.153V211.047C248.834 210.965 248.918 210.882 249 210.798V191.202C248.918 191.118 248.834 191.035 248.75 190.953ZM246.657 189.278L242.71 195.063C241.634 194.389 240.363 194 239 194C235.134 194 232 197.134 232 201C232 204.866 235.134 208 239 208C240.565 208 242.01 207.487 243.175 206.619L247.123 212.404C244.832 214.039 242.028 215 239 215C231.268 215 225 208.732 225 201C225 193.268 231.268 187 239 187C241.826 187 244.457 187.837 246.657 189.278Z" fill="white"/>
<path fill-rule="evenodd" clip-rule="evenodd" d="M239 225C247.357 225 254.716 220.729 259.014 214.25H267.034C262.066 224.743 251.38 232 239 232C221.879 232 208 218.121 208 201C208 183.879 221.879 170 239 170C250.983 170 261.378 176.799 266.538 186.75H258.314C253.942 180.835 246.919 177 239 177C225.745 177 215 187.745 215 201C215 214.255 225.745 225 239 225Z" fill="white"/>
<path fill-rule="evenodd" clip-rule="evenodd" d="M239 242C257.007 242 272.303 230.392 277.812 214.25H285.148C279.397 234.316 260.914 249 239 249C212.49 249 191 227.51 191 201C191 174.49 212.49 153 239 153C260.548 153 278.779 167.198 284.849 186.75H277.456C271.666 171.131 256.633 160 239 160C216.356 160 198 178.356 198 201C198 223.644 216.356 242 239 242Z" fill="white"/>
<path d="M329.471 182H341L324.529 195H313L329.471 182Z" fill="white"/>
<path d="M324.529 207H313L329.471 220H341L324.529 207Z" fill="white"/>
<path fill-rule="evenodd" clip-rule="evenodd" d="M338 196H247.319V206H338V196Z" fill="white"/>
<path fill-rule="evenodd" clip-rule="evenodd" d="M239 201L247.111 206.196V195.804L239 201Z" fill="white"/>
<path d="M342.882 182H354L338.118 195H327L342.882 182Z" fill="white"/>
<path d="M338.118 207H327L342.882 220H354L338.118 207Z" fill="white"/>
<path fill-rule="evenodd" clip-rule="evenodd" d="M198.188 325.207C198.845 326.728 198.145 328.494 196.624 329.15C188.485 332.665 180.238 340.091 173.135 348.238C166.08 356.331 160.403 364.843 157.362 370.156L154.383 375.363L152.004 369.855C148.541 361.836 141.674 356.273 138.827 354.594C137.4 353.753 136.925 351.914 137.767 350.486C138.608 349.059 140.447 348.584 141.875 349.426C144.823 351.164 150.662 355.776 154.936 362.594C158.305 357.31 163.045 350.681 168.613 344.295C175.903 335.933 184.864 327.693 194.245 323.642C195.766 322.985 197.532 323.686 198.188 325.207Z" fill="#8BC175"/>
<path fill-rule="evenodd" clip-rule="evenodd" d="M198.188 398.669C198.845 400.19 198.145 401.955 196.624 402.612C188.485 406.126 180.238 413.552 173.135 421.7C166.08 429.792 160.403 438.305 157.362 443.618L154.383 448.825L152.004 443.317C148.541 435.298 141.674 429.735 138.827 428.056C137.4 427.215 136.925 425.375 137.767 423.948C138.608 422.521 140.447 422.046 141.875 422.887C144.823 424.626 150.662 429.238 154.936 436.055C158.305 430.771 163.045 424.142 168.613 417.757C175.903 409.395 184.864 401.155 194.245 397.104C195.766 396.447 197.532 397.147 198.188 398.669Z" fill="#8BC175"/>
</g>
<path d="M104 75.8902V31C104 29.3431 105.343 28 107 28H142C143.657 28 145 29.3431 145 31V75.8902C145 78.6754 141.535 79.9573 139.722 77.8426L126.778 62.7407C125.58 61.3439 123.42 61.3439 122.222 62.7407L109.278 77.8426C107.465 79.9573 104 78.6754 104 75.8902Z" fill="#8BC175"/>
<defs>
<filter id="filter0_d" x="36" y="0" width="453" height="551" filterUnits="userSpaceOnUse" color-interpolation-filters="sRGB">
<feFlood flood-opacity="0" result="BackgroundImageFix"/>
<feColorMatrix in="SourceAlpha" type="matrix" values="0 0 0 0 0 0 0 0 0 0 0 0 0 0 0 0 0 0 127 0" result="hardAlpha"/>
<feOffset dy="4"/>
<feGaussianBlur stdDeviation="27"/>
<feComposite in2="hardAlpha" operator="out"/>
<feColorMatrix type="matrix" values="0 0 0 0 0 0 0 0 0 0 0 0 0 0 0 0 0 0 0.12 0"/>
<feBlend mode="normal" in2="BackgroundImageFix" result="effect1_dropShadow"/>
<feBlend mode="normal" in="SourceGraphic" in2="effect1_dropShadow" result="shape"/>
</filter>
<linearGradient id="paint0_linear" x1="286.94" y1="0.103957" x2="272.256" y2="545.996" gradientUnits="userSpaceOnUse">
<stop stop-color="#E3F2DD"/>
<stop offset="1" stop-color="white"/>
</linearGradient>
<linearGradient id="paint1_linear" x1="303.216" y1="66.1931" x2="286.448" y2="545.998" gradientUnits="userSpaceOnUse">
<stop stop-color="#8BC175"/>
<stop offset="1" stop-color="white"/>
</linearGradient>
<linearGradient id="paint2_linear" x1="268" y1="52" x2="268.5" y2="286" gradientUnits="userSpaceOnUse">
<stop stop-color="#E3F2DD"/>
<stop offset="1" stop-color="#8BC175"/>
</linearGradient>
</defs>
</svg>
