<?xml version="1.0" encoding="UTF-8" ?>
<!DOCTYPE svg PUBLIC "-//W3C//DTD SVG 1.1//EN" "http://www.w3.org/Graphics/SVG/1.1/DTD/svg11.dtd">
<svg width="500pt" height="500pt" viewBox="0 0 500 500" version="1.1" xmlns="http://www.w3.org/2000/svg">
<g id="#ffffffff">
<path fill="#ffffff" opacity="1.00" d=" M 0.00 0.00 L 500.00 0.00 L 500.00 500.00 L 0.00 500.00 L 0.00 0.00 M 216.55 176.01 C 216.40 182.15 216.51 188.29 216.57 194.43 C 226.38 194.53 236.19 194.55 246.00 194.42 C 246.00 184.62 246.02 174.82 245.99 165.01 C 239.97 165.03 233.95 164.92 227.93 165.02 C 222.02 164.89 216.55 170.06 216.55 176.01 M 254.22 165.07 C 254.24 174.81 254.31 184.55 254.18 194.29 C 263.92 194.72 273.68 194.45 283.43 194.43 C 283.49 188.29 283.60 182.15 283.45 176.01 C 283.44 170.06 277.98 164.89 272.07 165.02 C 266.12 164.93 260.17 164.99 254.22 165.07 M 216.58 202.79 C 216.50 208.86 216.40 214.92 216.55 220.99 C 216.55 226.94 222.02 232.11 227.93 231.99 C 233.95 232.08 239.97 231.97 245.99 231.99 C 246.01 222.25 246.02 212.52 245.98 202.79 C 236.18 202.71 226.38 202.71 216.58 202.79 M 254.24 202.89 C 254.25 212.57 254.27 222.25 254.22 231.93 C 260.17 232.02 266.12 232.07 272.07 231.98 C 277.98 232.11 283.45 226.94 283.45 220.98 C 283.60 214.92 283.50 208.86 283.42 202.79 C 273.69 202.77 263.96 202.59 254.24 202.89 M 149.88 266.17 C 149.80 278.44 149.84 290.72 149.86 302.99 C 151.97 302.99 154.08 302.99 156.20 303.00 C 156.28 297.13 156.13 291.26 156.30 285.40 C 158.84 283.58 163.12 279.97 165.79 283.33 C 167.44 289.70 166.13 296.47 166.59 303.01 C 168.71 303.00 170.84 303.00 172.97 302.99 C 172.50 295.40 174.05 287.50 171.93 280.13 C 168.79 273.89 160.38 276.42 156.16 280.09 C 156.26 275.45 156.24 270.80 156.17 266.16 C 154.08 266.16 151.98 266.16 149.88 266.17 M 335.08 266.17 C 335.01 278.44 335.07 290.71 335.05 302.98 C 337.18 302.99 339.31 303.00 341.44 303.01 C 341.69 299.33 340.30 294.75 343.91 292.29 C 346.33 295.82 348.54 299.51 350.98 303.04 C 353.35 303.01 355.72 302.99 358.10 302.97 C 354.74 297.93 351.19 293.02 347.84 287.97 C 350.99 284.28 354.40 280.80 357.44 277.02 C 355.02 277.01 352.60 277.02 350.19 277.03 C 347.31 280.41 344.48 283.83 341.43 287.06 C 341.47 280.08 341.56 273.10 341.39 266.13 C 339.28 266.14 337.18 266.16 335.08 266.17 M 299.04 272.83 C 302.43 274.27 307.41 272.15 305.13 268.02 C 301.89 264.36 296.42 268.47 299.04 272.83 M 125.44 269.47 C 119.57 271.92 118.06 280.92 122.89 285.07 C 127.02 288.41 132.69 288.34 137.28 290.72 C 139.72 291.97 139.31 295.96 136.78 296.87 C 132.40 298.63 127.43 296.98 124.53 293.38 C 122.69 294.72 120.92 296.16 119.25 297.73 C 124.16 304.02 133.28 305.09 140.37 302.34 C 147.18 299.72 148.21 288.82 142.00 285.01 C 137.94 282.48 132.92 282.43 128.68 280.33 C 126.47 279.34 126.79 275.75 129.00 274.99 C 132.96 273.15 137.54 274.80 140.17 278.08 C 141.94 276.77 143.67 275.42 145.37 274.02 C 141.11 267.66 132.07 266.69 125.44 269.47 M 249.10 268.79 C 249.10 270.90 249.10 273.01 249.11 275.13 C 252.63 275.15 256.15 275.16 259.67 275.19 C 259.65 284.47 259.62 293.75 259.68 303.02 C 262.01 303.00 264.34 302.97 266.67 302.93 C 266.62 293.67 266.57 284.40 266.69 275.14 C 270.18 275.16 273.67 275.16 277.16 275.14 C 277.16 273.02 277.17 270.91 277.17 268.80 C 267.81 268.73 258.46 268.74 249.10 268.79 M 225.30 269.90 C 225.30 272.28 225.30 274.67 225.29 277.05 C 223.39 276.95 221.50 276.84 219.62 276.74 C 219.61 278.74 219.54 280.74 219.39 282.74 C 221.35 282.52 223.30 282.23 225.27 282.00 C 225.69 287.93 224.48 294.09 226.11 299.87 C 228.35 304.83 234.78 303.92 239.15 303.10 C 238.82 301.44 238.48 299.79 238.14 298.14 C 236.23 298.15 234.12 298.87 232.38 297.74 C 230.98 292.68 231.95 287.32 231.73 282.14 C 233.71 282.13 235.70 282.12 237.69 282.12 C 237.69 280.41 237.69 278.71 237.68 277.01 C 235.68 277.01 233.70 277.00 231.71 277.00 C 231.70 274.63 231.70 272.27 231.70 269.90 C 229.56 269.88 227.43 269.88 225.30 269.90 M 187.39 276.45 C 178.07 276.76 175.49 287.96 177.65 295.37 C 179.62 306.02 197.42 306.84 200.79 296.80 C 202.51 291.58 202.45 285.34 199.39 280.63 C 196.80 276.77 191.68 275.99 187.39 276.45 M 314.95 277.92 C 309.00 281.56 308.44 289.76 310.07 295.89 C 312.50 305.14 326.62 306.42 332.10 299.35 C 330.64 298.29 329.17 297.23 327.70 296.17 C 324.62 298.20 319.58 299.44 317.09 295.92 C 315.37 292.34 315.40 287.77 317.08 284.18 C 319.33 280.72 324.33 281.67 327.14 283.91 C 328.68 282.89 330.21 281.84 331.74 280.79 C 328.05 275.59 320.26 275.24 314.95 277.92 M 363.59 277.56 C 359.13 279.56 358.00 286.12 361.47 289.52 C 364.84 292.97 370.53 292.07 373.98 295.16 C 373.93 300.59 365.99 298.55 363.16 296.14 C 361.70 297.20 360.24 298.26 358.79 299.33 C 362.96 304.37 370.72 304.81 376.39 302.34 C 381.77 299.90 381.68 291.13 376.19 288.86 C 372.91 286.74 367.65 287.62 365.58 283.99 C 367.25 279.74 372.99 281.81 375.76 283.90 C 377.22 282.82 378.68 281.75 380.14 280.66 C 376.24 275.88 368.99 275.28 363.59 277.56 M 205.86 277.02 C 205.82 285.68 205.83 294.34 205.86 302.99 C 207.97 302.99 210.09 302.99 212.20 303.00 C 212.22 297.37 212.26 291.75 212.17 286.12 C 213.95 284.53 216.02 283.31 218.37 282.80 C 218.41 280.73 218.42 278.66 218.42 276.60 C 216.26 277.58 214.25 278.85 212.33 280.23 C 212.27 279.43 212.16 277.82 212.10 277.02 C 210.02 277.02 207.94 277.02 205.86 277.02 M 279.86 277.02 C 279.82 285.68 279.83 294.34 279.86 302.99 C 281.97 302.99 284.08 302.99 286.20 303.00 C 286.23 297.37 286.26 291.75 286.17 286.13 C 288.68 283.51 292.15 282.56 295.69 282.75 C 296.04 280.78 296.40 278.82 296.75 276.86 C 292.81 275.97 289.25 277.77 286.34 280.26 C 286.28 279.45 286.16 277.83 286.10 277.02 C 284.02 277.02 281.94 277.02 279.86 277.02 M 298.86 277.02 C 298.83 285.68 298.83 294.34 298.86 302.99 C 300.97 302.99 303.08 302.99 305.20 303.00 C 305.23 294.34 305.24 285.68 305.20 277.02 C 303.08 277.02 300.97 277.02 298.86 277.02 Z" />
<path fill="#ffffff" opacity="1.00" d=" M 229.03 172.00 C 230.47 172.00 231.92 171.99 233.36 171.99 C 233.38 173.64 233.40 175.30 233.41 176.95 C 235.22 177.10 237.02 177.23 238.83 177.38 C 238.86 178.87 238.90 180.36 238.94 181.85 C 237.10 181.96 235.26 182.07 233.43 182.18 C 233.41 183.86 233.38 185.53 233.35 187.21 C 231.89 187.21 230.44 187.22 229.00 187.22 C 228.96 185.52 228.92 183.83 228.90 182.13 C 227.03 182.02 225.17 181.91 223.31 181.79 C 223.36 180.33 223.42 178.88 223.47 177.42 C 225.26 177.31 227.05 177.21 228.85 177.11 C 228.90 175.40 228.96 173.70 229.03 172.00 Z" />
<path fill="#ffffff" opacity="1.00" d=" M 261.19 177.24 C 266.31 177.25 271.43 177.18 276.55 177.35 C 276.60 178.85 276.64 180.34 276.70 181.84 C 271.50 182.11 266.29 182.03 261.09 181.94 C 261.12 180.37 261.15 178.81 261.19 177.24 Z" />
<path fill="#ffffff" opacity="1.00" d=" M 223.77 213.51 C 224.77 212.27 225.81 211.06 226.88 209.88 C 228.29 211.20 229.70 212.52 231.12 213.85 C 232.57 212.52 234.05 211.23 235.55 209.96 C 236.51 211.04 237.47 212.11 238.44 213.20 C 237.21 214.53 235.99 215.86 234.77 217.19 C 237.54 219.58 239.31 222.68 235.35 224.85 C 233.92 223.53 232.50 222.22 231.07 220.91 C 229.68 222.20 228.29 223.50 226.91 224.79 C 222.73 222.62 224.81 219.48 227.70 217.32 C 226.39 216.05 225.08 214.77 223.77 213.51 Z" />
<path fill="#ffffff" opacity="1.00" d=" M 260.96 211.02 C 266.26 210.98 271.56 210.95 276.86 211.07 C 276.86 212.48 276.87 213.91 276.88 215.33 C 271.57 215.63 266.25 215.51 260.94 215.42 C 260.95 213.95 260.95 212.48 260.96 211.02 Z" />
<path fill="#ffffff" opacity="1.00" d=" M 260.93 219.03 C 266.24 218.98 271.56 218.95 276.88 219.07 C 276.84 220.62 276.81 222.19 276.77 223.75 C 271.53 223.76 266.29 223.75 261.04 223.76 C 260.99 222.18 260.95 220.60 260.93 219.03 Z" />
<path fill="#ffffff" opacity="1.00" d=" M 187.20 282.25 C 194.49 279.57 196.61 288.69 194.90 293.92 C 194.27 299.57 184.67 299.57 184.04 293.92 C 183.37 290.05 182.87 284.14 187.20 282.25 Z" />
</g>
<g id="#22a6ffff">
<path fill="#22a6ff" opacity="1.00" d=" M 216.55 176.01 C 216.55 170.06 222.02 164.89 227.93 165.02 C 233.95 164.92 239.97 165.03 245.99 165.01 C 246.02 174.82 246.00 184.62 246.00 194.42 C 236.19 194.55 226.38 194.53 216.57 194.43 C 216.51 188.29 216.40 182.15 216.55 176.01 M 229.03 172.00 C 228.96 173.70 228.90 175.40 228.85 177.11 C 227.05 177.21 225.26 177.31 223.47 177.42 C 223.42 178.88 223.36 180.33 223.31 181.79 C 225.17 181.91 227.03 182.02 228.90 182.13 C 228.92 183.83 228.96 185.52 229.00 187.22 C 230.44 187.22 231.89 187.21 233.35 187.21 C 233.38 185.53 233.41 183.86 233.43 182.18 C 235.26 182.07 237.10 181.96 238.94 181.85 C 238.90 180.36 238.86 178.87 238.83 177.38 C 237.02 177.23 235.22 177.10 233.41 176.95 C 233.40 175.30 233.38 173.64 233.36 171.99 C 231.92 171.99 230.47 172.00 229.03 172.00 Z" />
<path fill="#22a6ff" opacity="1.00" d=" M 254.22 165.07 C 260.17 164.99 266.12 164.93 272.07 165.02 C 277.98 164.89 283.44 170.06 283.45 176.01 C 283.60 182.15 283.49 188.29 283.43 194.43 C 273.68 194.45 263.92 194.72 254.18 194.29 C 254.31 184.55 254.24 174.81 254.22 165.07 M 261.19 177.24 C 261.15 178.81 261.12 180.37 261.09 181.94 C 266.29 182.03 271.50 182.11 276.70 181.84 C 276.64 180.34 276.60 178.85 276.55 177.35 C 271.43 177.18 266.31 177.25 261.19 177.24 Z" />
<path fill="#22a6ff" opacity="1.00" d=" M 216.58 202.79 C 226.38 202.71 236.18 202.71 245.98 202.79 C 246.02 212.52 246.01 222.25 245.99 231.99 C 239.97 231.97 233.95 232.08 227.93 231.99 C 222.02 232.11 216.55 226.94 216.55 220.99 C 216.40 214.92 216.50 208.86 216.58 202.79 M 223.77 213.51 C 225.08 214.77 226.39 216.05 227.70 217.32 C 224.81 219.48 222.73 222.62 226.91 224.79 C 228.29 223.50 229.68 222.20 231.07 220.91 C 232.50 222.22 233.92 223.53 235.35 224.85 C 239.31 222.68 237.54 219.58 234.77 217.19 C 235.99 215.86 237.21 214.53 238.44 213.20 C 237.47 212.11 236.51 211.04 235.55 209.96 C 234.05 211.23 232.57 212.52 231.12 213.85 C 229.70 212.52 228.29 211.20 226.88 209.88 C 225.81 211.06 224.77 212.27 223.77 213.51 Z" />
<path fill="#22a6ff" opacity="1.00" d=" M 254.24 202.89 C 263.96 202.59 273.69 202.77 283.42 202.79 C 283.50 208.86 283.60 214.92 283.45 220.98 C 283.45 226.94 277.98 232.11 272.07 231.98 C 266.12 232.07 260.17 232.02 254.22 231.93 C 254.27 222.25 254.25 212.57 254.24 202.89 M 260.96 211.02 C 260.95 212.48 260.95 213.95 260.94 215.42 C 266.25 215.51 271.57 215.63 276.88 215.33 C 276.87 213.91 276.86 212.48 276.86 211.07 C 271.56 210.95 266.26 210.98 260.96 211.02 M 260.93 219.03 C 260.95 220.60 260.99 222.18 261.04 223.76 C 266.29 223.75 271.53 223.76 276.77 223.75 C 276.81 222.19 276.84 220.62 276.88 219.07 C 271.56 218.95 266.24 218.98 260.93 219.03 Z" />
</g>
<g id="#083dcfff">
<path fill="#083dcf" opacity="1.00" d=" M 149.88 266.17 C 151.98 266.16 154.08 266.16 156.17 266.16 C 156.24 270.80 156.26 275.45 156.16 280.09 C 160.38 276.42 168.79 273.89 171.93 280.13 C 174.05 287.50 172.50 295.40 172.97 302.99 C 170.84 303.00 168.71 303.00 166.59 303.01 C 166.13 296.47 167.44 289.70 165.79 283.33 C 163.12 279.97 158.84 283.58 156.30 285.40 C 156.13 291.26 156.28 297.13 156.20 303.00 C 154.08 302.99 151.97 302.99 149.86 302.99 C 149.84 290.72 149.80 278.44 149.88 266.17 Z" />
<path fill="#083dcf" opacity="1.00" d=" M 335.08 266.17 C 337.18 266.16 339.28 266.14 341.39 266.13 C 341.56 273.10 341.47 280.08 341.43 287.06 C 344.48 283.83 347.31 280.41 350.19 277.03 C 352.60 277.02 355.02 277.01 357.44 277.02 C 354.40 280.80 350.99 284.28 347.84 287.97 C 351.19 293.02 354.74 297.93 358.10 302.97 C 355.72 302.99 353.35 303.01 350.98 303.04 C 348.54 299.51 346.33 295.82 343.91 292.29 C 340.30 294.75 341.69 299.33 341.44 303.01 C 339.31 303.00 337.18 302.99 335.05 302.98 C 335.07 290.71 335.01 278.44 335.08 266.17 Z" />
<path fill="#083dcf" opacity="1.00" d=" M 299.04 272.83 C 296.42 268.47 301.89 264.36 305.13 268.02 C 307.41 272.15 302.43 274.27 299.04 272.83 Z" />
<path fill="#083dcf" opacity="1.00" d=" M 125.44 269.47 C 132.07 266.69 141.11 267.66 145.37 274.02 C 143.67 275.42 141.94 276.77 140.17 278.08 C 137.54 274.80 132.96 273.15 129.00 274.99 C 126.79 275.75 126.47 279.34 128.68 280.33 C 132.92 282.43 137.94 282.48 142.00 285.01 C 148.21 288.82 147.18 299.72 140.37 302.34 C 133.28 305.09 124.16 304.02 119.25 297.73 C 120.92 296.16 122.69 294.72 124.53 293.38 C 127.43 296.98 132.40 298.63 136.78 296.87 C 139.31 295.96 139.72 291.97 137.28 290.72 C 132.69 288.34 127.02 288.41 122.89 285.07 C 118.06 280.92 119.57 271.92 125.44 269.47 Z" />
<path fill="#083dcf" opacity="1.00" d=" M 249.10 268.79 C 258.46 268.74 267.81 268.73 277.17 268.80 C 277.17 270.91 277.16 273.02 277.16 275.14 C 273.67 275.16 270.18 275.16 266.69 275.14 C 266.57 284.40 266.62 293.67 266.67 302.93 C 264.34 302.97 262.01 303.00 259.68 303.02 C 259.62 293.75 259.65 284.47 259.67 275.19 C 256.15 275.16 252.63 275.15 249.11 275.13 C 249.10 273.01 249.10 270.90 249.10 268.79 Z" />
<path fill="#083dcf" opacity="1.00" d=" M 225.30 269.90 C 227.43 269.88 229.56 269.88 231.70 269.90 C 231.70 272.27 231.70 274.63 231.71 277.00 C 233.70 277.00 235.68 277.01 237.68 277.01 C 237.69 278.71 237.69 280.41 237.69 282.12 C 235.70 282.12 233.71 282.13 231.73 282.14 C 231.95 287.32 230.98 292.68 232.38 297.74 C 234.12 298.87 236.23 298.15 238.14 298.14 C 238.48 299.79 238.82 301.44 239.15 303.10 C 234.78 303.92 228.35 304.83 226.11 299.87 C 224.48 294.09 225.69 287.93 225.27 282.00 C 223.30 282.23 221.35 282.52 219.39 282.74 C 219.54 280.74 219.61 278.74 219.62 276.74 C 221.50 276.84 223.39 276.95 225.29 277.05 C 225.30 274.67 225.30 272.28 225.30 269.90 Z" />
<path fill="#083dcf" opacity="1.00" d=" M 187.39 276.45 C 191.68 275.99 196.80 276.77 199.39 280.63 C 202.45 285.34 202.51 291.58 200.79 296.80 C 197.42 306.84 179.62 306.02 177.65 295.37 C 175.49 287.96 178.07 276.76 187.39 276.45 M 187.20 282.25 C 182.87 284.14 183.37 290.05 184.04 293.92 C 184.67 299.57 194.27 299.57 194.90 293.92 C 196.61 288.69 194.49 279.57 187.20 282.25 Z" />
<path fill="#083dcf" opacity="1.00" d=" M 314.95 277.92 C 320.26 275.24 328.05 275.59 331.74 280.79 C 330.21 281.84 328.68 282.89 327.14 283.91 C 324.33 281.67 319.33 280.72 317.08 284.18 C 315.40 287.77 315.37 292.34 317.09 295.92 C 319.58 299.44 324.62 298.20 327.70 296.17 C 329.17 297.23 330.64 298.29 332.10 299.35 C 326.62 306.42 312.50 305.14 310.07 295.89 C 308.44 289.76 309.00 281.56 314.95 277.92 Z" />
<path fill="#083dcf" opacity="1.00" d=" M 363.59 277.56 C 368.99 275.28 376.24 275.88 380.14 280.66 C 378.68 281.75 377.22 282.82 375.76 283.90 C 372.99 281.81 367.25 279.74 365.58 283.99 C 367.65 287.62 372.91 286.74 376.19 288.86 C 381.68 291.13 381.77 299.90 376.39 302.34 C 370.72 304.81 362.96 304.37 358.79 299.33 C 360.24 298.26 361.70 297.20 363.16 296.14 C 365.99 298.55 373.93 300.59 373.98 295.16 C 370.53 292.07 364.84 292.97 361.47 289.52 C 358.00 286.12 359.13 279.56 363.59 277.56 Z" />
<path fill="#083dcf" opacity="1.00" d=" M 205.86 277.02 C 207.94 277.02 210.02 277.02 212.10 277.02 C 212.16 277.82 212.27 279.43 212.33 280.23 C 214.25 278.85 216.26 277.58 218.42 276.60 C 218.42 278.66 218.41 280.73 218.37 282.80 C 216.02 283.31 213.95 284.53 212.17 286.12 C 212.26 291.75 212.22 297.37 212.20 303.00 C 210.09 302.99 207.97 302.99 205.86 302.99 C 205.83 294.34 205.82 285.68 205.86 277.02 Z" />
<path fill="#083dcf" opacity="1.00" d=" M 279.86 277.02 C 281.94 277.02 284.02 277.02 286.10 277.02 C 286.16 277.83 286.28 279.45 286.34 280.26 C 289.25 277.77 292.81 275.97 296.75 276.86 C 296.40 278.82 296.04 280.78 295.69 282.75 C 292.15 282.56 288.68 283.51 286.17 286.13 C 286.26 291.75 286.23 297.37 286.20 303.00 C 284.08 302.99 281.97 302.99 279.86 302.99 C 279.83 294.34 279.82 285.68 279.86 277.02 Z" />
<path fill="#083dcf" opacity="1.00" d=" M 298.86 277.02 C 300.97 277.02 303.08 277.02 305.20 277.02 C 305.24 285.68 305.23 294.34 305.20 303.00 C 303.08 302.99 300.97 302.99 298.86 302.99 C 298.83 294.34 298.83 285.68 298.86 277.02 Z" />
</g>
</svg>
